<?xml version="1.0" standalone="no"?>
<!DOCTYPE svg PUBLIC "-//W3C//DTD SVG 20010904//EN"
 "http://www.w3.org/TR/2001/REC-SVG-20010904/DTD/svg10.dtd">
<svg version="1.0" xmlns="http://www.w3.org/2000/svg"
 width="2880.000000pt" height="1800.000000pt" viewBox="0 0 2880.000000 1800.000000"
 preserveAspectRatio="xMidYMid meet">

<g transform="translate(0.000000,1800.000000) scale(0.100000,-0.100000)"
fill="#000000" stroke="none">
<path d="M14100 10103 c-90 -10 -213 -37 -292 -63 -179 -60 -419 -196 -608
-346 -119 -94 -359 -338 -463 -471 l-88 -112 -46 29 c-150 96 -355 105 -514
24 -252 -127 -318 -499 -129 -726 38 -46 140 -115 191 -128 21 -6 41 -15 44
-20 3 -6 -14 -72 -39 -147 -49 -151 -86 -308 -113 -478 -22 -136 -22 -502 -1
-605 l13 -65 23 115 c39 195 108 411 201 635 91 217 271 528 380 655 26 30 70
89 98 130 84 125 242 290 438 456 111 94 117 97 199 92 59 -3 81 -8 115 -31
51 -34 80 -92 81 -159 l0 -48 -127 0 c-243 0 -350 -23 -427 -91 -59 -51 -80
-101 -80 -189 0 -123 53 -203 168 -256 55 -25 65 -26 175 -22 101 4 123 8 168
31 29 15 68 40 86 57 19 16 37 30 41 30 3 0 6 -25 6 -55 l0 -55 81 0 81 0 -4
343 -3 342 -33 68 c-36 73 -79 113 -162 149 l-45 20 90 45 c50 26 117 57 150
70 76 31 284 85 296 77 5 -3 9 -236 9 -560 l0 -554 80 0 80 0 2 563 3 562 62
-3 c138 -6 304 -68 421 -156 34 -26 62 -49 62 -51 0 -2 -29 -18 -63 -34 -119
-57 -210 -175 -238 -309 -16 -80 -7 -223 20 -292 70 -182 223 -283 426 -284
142 -1 263 39 346 113 l41 36 -40 43 c-21 23 -42 42 -46 42 -3 0 -29 -16 -57
-35 -66 -45 -135 -65 -224 -65 -90 0 -152 21 -209 71 -47 42 -96 130 -96 173
l0 26 365 0 365 0 0 53 c0 215 -102 390 -260 448 -33 12 -60 25 -60 29 0 4 -7
46 -15 93 -59 338 -240 602 -493 719 -110 51 -317 85 -432 71z m-1701 -1034
c53 -11 138 -60 147 -84 4 -8 -35 -83 -90 -177 -53 -90 -117 -211 -143 -270
-30 -67 -54 -107 -63 -107 -28 -1 -105 40 -138 72 -38 36 -76 104 -87 156 -4
19 -7 65 -7 101 2 150 88 271 220 306 59 16 98 17 161 3z m2508 -31 c46 -74
106 -209 96 -219 -5 -5 -91 -8 -194 -7 l-184 3 3 28 c9 71 59 149 124 192 85
56 120 57 155 3z m212 -23 c42 -38 77 -109 83 -165 l3 -35 -75 0 -75 0 -3 118
c-3 135 2 141 67 82z m-1529 -364 c0 -132 -90 -214 -250 -228 -83 -7 -142 9
-187 51 -30 27 -36 41 -41 84 -5 57 9 89 53 118 38 25 70 29 256 33 l169 3 0
-61z"/>
<path d="M11110 9499 c-317 -83 -513 -405 -445 -730 26 -121 76 -212 169 -305
138 -137 273 -189 475 -182 122 5 165 16 277 70 59 29 154 101 154 118 0 4
-20 31 -46 58 l-45 51 -47 -36 c-157 -121 -343 -142 -515 -60 -292 139 -356
526 -126 756 93 93 209 135 357 129 86 -3 106 -7 173 -39 41 -20 91 -50 111
-68 20 -17 40 -31 45 -31 12 0 93 95 93 109 0 37 -180 140 -290 165 -92 22
-247 20 -340 -5z"/>
<path d="M15693 9201 c-69 -24 -118 -58 -150 -106 -22 -32 -28 -54 -31 -112
-5 -96 9 -132 73 -191 44 -41 70 -54 152 -81 214 -70 257 -95 269 -158 10 -53
-12 -92 -65 -116 -84 -37 -273 -8 -373 58 -21 14 -41 25 -46 25 -4 0 -20 -24
-35 -54 l-26 -55 31 -26 c69 -58 174 -92 313 -102 170 -12 320 71 355 196 25
89 5 169 -58 234 -47 49 -100 76 -234 120 -168 56 -198 77 -198 139 0 55 13
74 65 94 68 25 189 16 282 -23 l70 -30 27 54 c14 29 26 58 26 63 0 15 -70 47
-151 70 -94 26 -223 26 -296 1z"/>
<path d="M16631 9204 c-131 -35 -230 -117 -289 -242 l-37 -77 0 -136 0 -135
38 -77 c70 -141 185 -225 340 -249 100 -15 210 -1 300 40 64 29 147 94 147
115 0 6 -19 30 -42 54 l-41 42 -36 -31 c-98 -87 -274 -108 -390 -48 -47 24
-103 84 -132 140 -33 64 -34 222 -3 291 52 112 141 171 267 177 98 5 155 -10
229 -59 l57 -38 40 51 c23 28 41 54 41 59 0 14 -80 69 -135 94 -98 44 -252 57
-354 29z"/>
<path d="M17620 9214 c-52 -10 -146 -48 -186 -75 -131 -90 -204 -253 -191
-430 14 -176 103 -311 252 -381 126 -58 286 -60 427 -3 63 25 157 91 158 110
0 14 -72 85 -86 85 -6 0 -19 -8 -28 -19 -9 -10 -45 -32 -79 -47 -56 -26 -73
-29 -167 -29 -98 0 -109 2 -158 29 -77 43 -151 148 -152 214 l0 22 367 0 366
0 -6 93 c-18 277 -153 423 -402 432 -49 2 -101 2 -115 -1z m224 -158 c21 -11
53 -35 72 -54 35 -36 74 -125 74 -167 l0 -25 -290 0 -290 0 0 28 c1 86 98 200
200 233 46 15 192 5 234 -15z"/>
</g>
</svg>
